<?xml version="1.0" encoding="UTF-8"?>
<svg width="578px" height="228px" viewBox="0 0 578 228" version="1.1" xmlns="http://www.w3.org/2000/svg" xmlns:xlink="http://www.w3.org/1999/xlink">
    <title>Group</title>
    <g id="Page-1" stroke="none" stroke-width="1" fill="none" fill-rule="evenodd">
        <g id="logo-b" transform="translate(-861.000000, -183.000000)" fill="#000000" fill-rule="nonzero">
            <g id="Group" transform="translate(861.000000, 183.000000)">
                <rect id="Rectangle" x="404.370474" y="163.756165" width="173.629526" height="9.88784926"></rect>
                <path d="M81.6841859,55.4968919 C96.4008409,69.568062 106.52698,90.4846662 106.52698,112.922478 C106.52698,112.922478 110.847466,106.203811 117.328194,98.8513079 C123.808923,91.4988046 127.184303,81.3574207 127.184303,81.3574207 C127.184303,81.3574207 124.889045,77.4276345 115.167951,68.1736217 C105.446858,58.9196089 98.1560383,55.3701246 98.1560383,55.3701246 L81.6841859,55.3701246 L81.6841859,55.4968919 Z" id="Path"></path>
                <path d="M81.6841859,173.644014 C96.4008409,159.826378 106.52698,139.670378 106.52698,116.345195 C106.52698,116.345195 116.653118,124.711837 121.513665,130.416365 C126.374212,135.994126 130.019622,143.980466 130.019622,143.980466 C130.019622,143.980466 120.163513,155.009221 111.387526,163.249095 C103.961691,170.348064 100.316281,173.644014 100.316281,173.644014 L81.6841859,173.644014 Z" id="Path"></path>
                <path d="M137.310441,89.4705278 C133.395001,98.9780752 124.213969,110.387132 121.37865,114.063384 C127.589348,120.274981 135.015183,128.134554 140.280776,136.75473 C149.731838,128.134554 155.672506,120.148214 160.263023,112.795711 C153.512263,104.936138 150.001869,99.9922135 137.310441,89.4705278 L137.310441,89.4705278 Z" id="Path"></path>
                <path d="M118.678346,55.4968919 L148.651717,55.4968919 C148.651717,55.4968919 169.984116,69.3145274 175.114693,76.6670307 C171.469283,87.0619491 162.423266,98.7245406 162.423266,98.7245406 C162.423266,98.7245406 150.946975,85.1604397 142.576034,76.0331942 C133.395001,65.8918103 118.678346,55.4968919 118.678346,55.4968919 L118.678346,55.4968919 Z" id="Path"></path>
                <path d="M168.633964,55.4968919 L205.898155,55.4968919 C205.898155,55.4968919 203.872927,60.4408165 200.092502,67.4130179 C196.447092,74.3852193 193.611773,77.9347037 193.611773,77.9347037 C193.611773,77.9347037 189.426302,70.835735 182.135482,65.0044392 C174.844662,59.0463762 168.633964,55.4968919 168.633964,55.4968919 L168.633964,55.4968919 Z" id="Path"></path>
                <path d="M184.970801,82.4983264 C184.970801,82.4983264 181.730437,90.1043643 177.409951,97.4568676 C173.089465,104.809371 166.338706,114.063384 166.338706,114.063384 C166.338706,114.063384 173.494511,119.894679 178.490072,127.247183 C183.350619,134.219384 188.886242,144.487535 188.886242,144.487535 C188.886242,144.487535 193.881803,136.247661 198.74235,129.148692 C202.65779,123.317396 207.518337,115.331057 207.518337,115.331057 C207.518337,115.331057 201.577669,104.809371 196.312077,96.5694965 C191.586545,89.4705278 184.970801,82.4983264 184.970801,82.4983264 L184.970801,82.4983264 Z" id="Path"></path>
                <path d="M178.760103,146.896114 C178.760103,146.896114 175.519738,141.44512 170.929222,136.501195 C166.338706,131.557271 161.478159,128.261321 161.478159,128.261321 C161.478159,128.261321 152.027096,140.811284 142.441018,150.572366 C132.044849,160.713749 119.893483,173.644014 119.893483,173.644014 L152.567157,173.644014 C152.567157,173.644014 163.098342,165.657674 168.903994,158.939007 C174.439617,152.473875 178.760103,146.896114 178.760103,146.896114 L178.760103,146.896114 Z" id="Path"></path>
                <path d="M168.903994,173.644014 C168.903994,173.644014 178.355057,167.432416 184.025695,160.713749 C189.561317,154.248617 193.881803,148.163787 193.881803,148.163787 C193.881803,148.163787 198.067274,157.037498 201.307638,161.981422 C204.818033,167.559183 208.193413,173.644014 208.193413,173.644014 L168.903994,173.644014 L168.903994,173.644014 Z" id="Path"></path>
                <path d="M202.65779,143.219862 C202.65779,143.219862 208.598458,149.304693 211.163747,155.135988 C213.86405,162.10819 216.429339,169.333926 216.429339,169.333926 C216.429339,169.333926 222.370007,164.390001 229.120766,156.150127 C234.926419,149.051158 237.626723,145.755208 237.626723,145.755208 C237.626723,145.755208 233.441252,139.036541 227.230554,132.317875 C220.749825,125.218906 215.079187,122.176491 215.079187,122.176491 C215.079187,122.176491 211.838823,129.148692 209.543565,132.951711 C206.843261,137.642101 202.65779,143.219862 202.65779,143.219862 L202.65779,143.219862 Z" id="Path"></path>
                <path d="M215.079187,55.4968919 C215.079187,55.4968919 213.729035,62.5958606 210.083625,69.568062 C206.843261,75.7796596 201.172623,83.0053956 201.172623,83.0053956 C201.172623,83.0053956 204.412988,84.9069051 207.788367,90.3578989 C212.108853,97.3301003 213.32399,103.795232 213.32399,103.795232 C213.32399,103.795232 219.264658,98.3442387 227.095538,91.4988046 C234.521374,84.5266032 238.841859,78.948842 238.841859,78.948842 C238.841859,78.948842 232.361131,70.7089677 226.420463,65.1312065 C219.939734,59.0463762 215.079187,55.4968919 215.079187,55.4968919 L215.079187,55.4968919 Z" id="Path"></path>
                <path d="M246.132679,83.6392321 C246.132679,83.6392321 241.272133,92.0058738 235.061434,98.0907041 C227.635599,105.189673 222.370007,110.387132 222.370007,110.387132 C222.370007,110.387132 229.255781,116.59873 234.116328,122.68356 C239.65195,129.655761 244.917543,137.642101 244.917543,137.642101 C244.917543,137.642101 254.773651,131.557271 258.689091,121.035585 C262.199486,111.781572 266.519972,108.992692 266.519972,108.992692 C266.519972,108.992692 261.25438,99.8654462 256.123803,93.0200121 C251.263256,85.7942761 246.132679,83.6392321 246.132679,83.6392321 L246.132679,83.6392321 Z" id="Path"></path>
                <path d="M252.613408,151.713271 C252.613408,151.713271 249.103013,156.530429 243.837421,161.220819 C238.841859,165.784441 230.065872,173.770781 230.065872,173.770781 L270.030367,173.770781 C270.030367,173.770781 267.465078,168.19302 262.469516,162.361724 C256.258818,155.135988 252.613408,151.713271 252.613408,151.713271 L252.613408,151.713271 Z" id="Path"></path>
                <path d="M261.389395,140.684516 C261.389395,140.684516 268.275169,135.233522 271.515534,127.754252 C274.485868,121.035585 275.025929,117.612868 275.025929,117.612868 C275.025929,117.612868 282.451764,125.97951 288.662462,132.951711 C294.60313,139.923912 298.113525,146.13551 298.113525,146.13551 C294.468115,150.8259 281.101612,170.094529 281.101612,173.770781 C281.101612,173.770781 275.160944,162.10819 271.245503,155.135988 C267.600093,149.051158 263.144592,142.332491 261.389395,140.684516 L261.389395,140.684516 Z" id="Path"></path>
                <path d="M284.882037,110.387132 C284.882037,110.387132 291.362766,105.823509 296.223312,98.7245406 C301.218874,91.7523392 305.134314,82.4983264 305.134314,82.4983264 C305.134314,82.4983264 312.695165,89.4705278 317.285681,99.9922135 C321.471152,109.246226 324.846531,112.922478 324.846531,112.922478 C324.846531,112.922478 322.146228,116.345195 316.340575,124.965371 C310.804952,132.951711 307.429573,140.684516 307.429573,140.684516 C307.429573,140.684516 301.62392,130.543132 295.278206,122.303258 C288.932492,114.443686 284.882037,110.387132 284.882037,110.387132 L284.882037,110.387132 Z" id="Path"></path>
                <path d="M294.738145,173.644014 C294.738145,173.644014 302.16398,167.559183 306.079421,160.460215 C309.589815,154.628919 310.939967,151.206202 310.939967,151.206202 C310.939967,151.206202 314.855408,157.924869 318.365802,162.615259 C321.066106,166.291511 325.926653,173.644014 325.926653,173.644014 L294.738145,173.644014 L294.738145,173.644014 Z" id="Path"></path>
                <path d="M331.05723,122.303258 C331.05723,122.303258 326.466713,128.514856 323.631395,133.078478 C321.336136,137.008265 318.635833,142.205724 318.635833,142.205724 C318.635833,142.205724 327.141789,152.980944 331.05723,159.953146 C334.567624,166.037976 336.187807,168.19302 336.187807,168.19302 C336.187807,168.19302 342.668535,159.319309 346.043915,152.22034 C349.014249,146.389045 350.364401,145.121372 350.364401,145.121372 C350.364401,145.121372 347.124036,139.923912 340.913338,131.684038 C334.70264,123.317396 331.05723,122.303258 331.05723,122.303258 L331.05723,122.303258 Z" id="Path"></path>
                <path d="M233.576267,55.4968919 L264.629759,55.4968919 C264.629759,55.4968919 264.629759,60.1872819 260.984349,67.1594833 C256.123803,75.526125 257.33894,78.8220747 257.33894,78.8220747 C257.33894,78.8220747 249.103013,72.990779 243.567391,65.8918103 C238.841859,60.0605146 233.576267,55.4968919 233.576267,55.4968919 L233.576267,55.4968919 Z" id="Path"></path>
                <path d="M276.10605,55.4968919 C276.10605,55.4968919 275.83602,63.8635336 272.595655,68.9342255 C269.625321,73.6246155 263.684653,81.2306534 263.684653,81.2306534 C263.684653,81.2306534 269.220276,87.442251 271.110488,92.6397103 C273.000701,98.0907041 277.591217,104.682604 277.591217,104.682604 C277.591217,104.682604 289.742584,93.2735467 292.982948,86.9351818 C295.953282,81.1038861 297.303434,77.4276345 297.303434,77.4276345 C297.303434,77.4276345 293.658024,72.8640117 288.797477,66.9059487 C283.261855,60.0605146 276.10605,55.4968919 276.10605,55.4968919 L276.10605,55.4968919 Z" id="Path"></path>
                <path d="M293.793039,55.4968919 L322.281243,55.4968919 C322.281243,55.4968919 317.420696,58.9196089 314.855408,65.0044392 C312.560149,70.5822004 310.669937,72.990779 310.669937,72.990779 C310.669937,72.990779 308.104648,72.1034079 303.514132,65.0044392 C299.733707,59.1731435 293.793039,55.4968919 293.793039,55.4968919 L293.793039,55.4968919 Z" id="Path"></path>
                <path d="M332.407381,55.4968919 C332.407381,55.4968919 331.462275,61.5817222 328.491941,66.0185776 C325.251577,70.7089677 317.285681,78.8220747 317.285681,78.8220747 C317.285681,78.8220747 320.796076,82.1180245 324.846531,89.3437605 C329.437047,97.3301003 329.707078,101.006352 329.707078,101.006352 C329.707078,101.006352 336.862883,97.3301003 340.913338,91.7523392 C344.423733,86.8084145 348.744219,78.8220747 348.744219,78.8220747 C348.744219,78.8220747 349.014249,72.7372444 343.478626,66.0185776 C337.672974,58.7928416 332.407381,55.4968919 332.407381,55.4968919 L332.407381,55.4968919 Z" id="Path"></path>
                <path d="M358.600327,82.4983264 C358.600327,82.4983264 357.250175,89.4705278 352.119598,95.4285908 C347.259052,101.006352 337.402943,109.246226 337.402943,109.246226 C337.402943,109.246226 348.474188,117.612868 352.119598,124.585069 C355.765008,131.557271 360.895585,139.670378 360.895585,139.670378 C360.895585,139.670378 365.216071,131.303736 369.806587,123.190629 C375.34221,113.683082 378.717589,111.781572 378.717589,111.781572 C378.717589,111.781572 370.616678,101.259887 365.891147,94.0341505 C361.840691,88.2028548 358.600327,82.4983264 358.600327,82.4983264 L358.600327,82.4983264 Z" id="Path"></path>
                <path d="M364.40598,150.192064 C364.40598,150.192064 361.165616,157.544567 356.980145,161.854655 C352.389629,166.79858 348.474188,173.770781 348.474188,173.770781 L376.962392,173.770781 C376.962392,173.770781 375.34221,166.671812 373.046952,161.854655 C370.346648,156.023359 364.40598,150.192064 364.40598,150.192064 L364.40598,150.192064 Z" id="Path"></path>
                <path d="M372.236861,140.811284 C372.236861,140.811284 377.502453,144.234001 381.147863,151.332969 C384.793273,158.431938 387.088531,173.644014 387.088531,173.644014 C387.088531,173.644014 393.299229,165.657674 395.864518,157.4178 C398.159776,150.318831 403.695398,146.13551 403.695398,146.13551 C403.695398,146.13551 402.480262,140.557749 395.864518,132.698176 C389.92385,125.599208 384.523242,120.78205 384.523242,120.78205 C384.523242,120.78205 383.578136,125.97951 379.662696,131.430504 C375.207195,137.768868 372.236861,140.811284 372.236861,140.811284 L372.236861,140.811284 Z" id="Path"></path>
                <path d="M348.069143,55.4968919 L375.61224,55.4968919 C375.61224,55.4968919 373.722028,57.9054705 371.96683,65.2579738 C370.346648,72.3569425 366.971268,77.8079364 366.971268,77.8079364 C366.971268,77.8079364 358.735342,72.2301752 355.494978,65.8918103 C352.389629,60.4408165 348.069143,55.4968919 348.069143,55.4968919 L348.069143,55.4968919 Z" id="Path"></path>
                <path d="M387.223546,55.4968919 C387.223546,55.4968919 386.953516,62.2155587 383.038075,68.9342255 C379.392665,75.1458231 373.857043,81.7377226 373.857043,81.7377226 C373.857043,81.7377226 377.367438,87.3154837 381.012847,94.2876851 C384.658257,101.259887 387.223546,103.541698 387.223546,103.541698 C387.223546,103.541698 396.944639,96.4427292 399.644943,91.8791065 C403.290353,85.7942761 404.640505,81.3574207 404.640505,81.3574207 C404.640505,81.3574207 402.750292,75.9064269 397.079654,67.5397852 C391.544032,59.4266781 387.223546,55.4968919 387.223546,55.4968919 L387.223546,55.4968919 Z" id="Path"></path>
                <path d="M410.851203,86.0478107 C410.851203,86.0478107 410.176127,91.8791065 404.370474,99.2316098 C399.509928,105.443207 391.679047,113.049245 391.679047,113.049245 C391.679047,113.049245 397.619715,116.725497 403.020322,124.965371 C408.96099,134.219384 411.796309,140.938051 411.796309,140.938051 C411.796309,140.938051 416.116795,133.585548 422.192478,125.852742 C427.728101,118.500239 430.698435,114.190151 430.698435,114.190151 C430.698435,114.190151 428.403177,107.21795 423.2726,101.386654 C417.061901,94.0341505 410.851203,86.0478107 410.851203,86.0478107 L410.851203,86.0478107 Z" id="Path"></path>
                <rect id="Rectangle" x="405.720626" y="55.4968919" width="170.929222" height="9.76108196"></rect>
                <rect id="Rectangle" x="419.89722" y="150.318831" width="144.061201" height="5.19745923"></rect>
                <rect id="Rectangle" x="439.744452" y="112.542176" width="102.88157" height="3.92978624"></rect>
                <rect id="Rectangle" x="436.504088" y="124.711837" width="110.71245" height="4.31008814"></rect>
                <rect id="Rectangle" x="427.593086" y="137.261799" width="127.184303" height="4.81715733"></rect>
                <rect id="Rectangle" x="419.89722" y="73.4978482" width="144.061201" height="5.19745923"></rect>
                <rect id="Rectangle" x="436.774118" y="99.9922135" width="110.71245" height="4.31008814"></rect>
                <rect id="Rectangle" x="429.213268" y="86.9351818" width="127.184303" height="4.69039003"></rect>
                <path d="M-5.75604347e-14,94.1609178 C11.2062602,75.3993577 37.534221,60.0605146 69.937865,55.4968919 C84.65452,70.5822004 94.7806587,91.7523392 94.7806587,115.331057 C94.7806587,138.909774 84.65452,159.826378 69.937865,173.644014 C37.534221,169.333926 11.2062602,155.009221 -5.75604347e-14,136.247661 C4.99556178,128.261321 12.4213969,120.908818 19.9822471,115.331057 C11.3412754,109.372994 5.13057697,102.400792 -5.75604347e-14,94.1609178 L-5.75604347e-14,94.1609178 Z M38.8843728,112.161874 C38.8843728,120.401749 45.7701472,126.866881 54.5461341,126.866881 C63.322121,126.866881 70.2078954,120.401749 70.2078954,112.161874 C70.2078954,103.922 63.322121,97.4568676 54.5461341,97.4568676 C45.7701472,97.4568676 38.8843728,103.922 38.8843728,112.161874 L38.8843728,112.161874 Z" id="Shape"></path>
                <g transform="translate(117.496963, 0.000000)" id="Path">
                    <path d="M7.66211166,45.9893445 C6.17694464,47.3837848 3.61165616,47.6373194 1.45141322,45.7358099 C-0.573814529,43.8343004 -0.303784163,41.6792564 1.18138285,39.9045142 L34.395118,5.42380908 C36.9604064,3.01523041 41.2808923,2.25462662 44.6562719,5.67734367 C48.0316515,9.10006072 47.2215604,12.6495451 44.3862415,15.3116583 L7.66211166,45.9893445 L7.66211166,45.9893445 Z"></path>
                    <path d="M43.3061201,45.7358099 C41.820953,47.1302502 38.9856342,47.890854 36.5553609,45.7358099 C34.2601028,43.5807658 34.8001635,41.932791 36.2853305,40.1580488 L68.9590049,4.91673988 C71.254263,2.50816122 75.8447793,1.74755743 79.2201588,5.17027448 C82.5955384,8.59299153 81.7854473,11.8889413 78.9501285,14.8045891 L43.3061201,45.7358099 L43.3061201,45.7358099 Z"></path>
                    <path d="M77.870007,45.7358099 C76.38484,47.1302502 73.8195515,47.890854 71.3892782,45.7358099 C69.0940201,43.5807658 69.3640505,41.932791 70.8492175,39.9045142 L102.712801,4.40967069 C104.738028,2.00109202 109.19353,1.24048824 112.973955,4.66320529 C116.889395,8.08592234 115.539243,11.1283375 112.703924,14.29752 L77.870007,45.7358099 L77.870007,45.7358099 Z"></path>
                    <path d="M112.973955,45.9893445 C111.488788,47.3837848 108.923499,47.3837848 106.763256,45.4822753 C104.738028,43.5807658 104.467998,42.0595583 105.953165,39.9045142 L137.546718,3.6490669 C139.301915,1.24048824 144.297477,-0.407486641 148.347933,3.39553231 C152.398388,7.19855125 150.643191,10.6212683 147.537842,13.5369162 L112.973955,45.9893445 L112.973955,45.9893445 Z"></path>
                    <path d="M148.887993,45.7358099 C147.402826,47.1302502 144.567508,47.890854 142.137234,45.7358099 C139.841976,43.5807658 139.841976,42.3130929 141.327143,39.9045142 L172.24562,3.39553231 C173.730787,0.986953639 178.726349,-0.407486641 182.776804,3.14199771 C186.82726,6.81824936 185.072063,10.3677337 182.236744,13.2833816 L148.887993,45.7358099 L148.887993,45.7358099 Z"></path>
                    <path d="M183.45188,45.7358099 C181.966713,47.1302502 179.401425,47.890854 176.701121,45.7358099 C174.135833,43.5807658 174.405863,42.3130929 175.89103,39.6509796 L205.729386,2.88846311 C207.214553,0.479884446 211.670054,-0.914555834 215.99054,2.38139392 C220.311025,5.80411097 219.095889,9.60712992 215.99054,12.7763124 L183.45188,45.7358099 L183.45188,45.7358099 Z"></path>
                    <path d="M217.205676,45.8625772 C215.720509,47.2570175 212.88519,47.7640867 210.454917,45.8625772 C208.159659,43.9610677 207.619598,42.6933948 209.104765,39.7777469 L238.40306,2.63492852 C239.888227,0.22634985 244.613758,-0.787788536 248.394184,2.38139392 C252.309624,5.55057637 252.444639,8.84652613 248.934244,12.5227778 L217.205676,45.8625772 Z"></path>
                    <path d="M251.229502,46.2428791 C249.744335,47.6373194 247.179047,47.2570175 245.018804,45.7358099 C242.993576,44.3413696 241.643424,43.3272312 243.263607,40.1580488 L272.021841,2.00109202 C273.507008,-0.407486641 278.232539,-0.914555834 281.742934,2.00109202 C285.388344,4.91673988 285.793389,8.08592234 282.823055,11.8889413 L251.229502,46.2428791 L251.229502,46.2428791 Z"></path>
                </g>
                <g transform="translate(117.445865, 180.892241)" id="Path">
                    <path d="M7.71320998,1.11841447 C6.22804296,-0.27602581 3.66275448,-0.529560406 1.50251155,1.37194907 C-0.657731389,3.27345854 -0.252685838,5.42850261 1.23248118,7.20324478 L34.4462163,41.6839499 C37.0115048,44.0925286 41.3319906,44.8531324 44.7073702,41.4304153 C48.0827498,38.0076983 47.2726587,34.4582139 44.4373399,31.7961006 L7.71320998,1.11841447 L7.71320998,1.11841447 Z"></path>
                    <path d="M43.3572184,1.37194907 C41.8720514,-0.0224912136 39.0367325,-0.783095003 36.6064592,1.37194907 C34.3112011,3.52699314 34.8512618,5.17496801 36.3364289,6.94971019 L69.0101032,42.1910191 C71.3053613,44.5995978 75.8958776,45.3602015 79.2712572,41.9374845 C82.6466367,38.5147674 81.8365456,35.2188177 79.0012268,32.3031698 L43.3572184,1.37194907 L43.3572184,1.37194907 Z"></path>
                    <path d="M77.9211053,1.37194907 C76.4359383,-0.0224912136 73.8706498,-0.783095003 71.4403765,1.37194907 C69.1451184,3.52699314 69.4151488,5.17496801 70.9003158,7.20324478 L102.763899,42.6980883 C104.789127,45.106667 109.244628,45.8672707 113.025053,42.4445537 C116.940493,39.0218366 115.590341,35.9794215 112.755023,32.810239 L77.9211053,1.37194907 L77.9211053,1.37194907 Z"></path>
                    <path d="M113.025053,0.991647172 C111.539886,-0.402793108 108.974598,-0.402793108 106.814355,1.49871637 C104.789127,3.40022584 104.519096,4.92143342 106.004263,7.07647749 L137.597816,43.3319248 C139.353014,45.7405034 144.348576,47.3884783 148.399031,43.5854594 C152.449487,39.7824404 150.694289,36.3597234 147.58894,33.4440755 L113.025053,0.991647172 L113.025053,0.991647172 Z"></path>
                    <path d="M148.939092,1.37194907 C147.453925,-0.0224912136 144.618606,-0.783095003 142.188333,1.37194907 C139.893074,3.52699314 139.893074,4.79466612 141.378242,7.20324478 L172.296719,43.7122267 C173.781886,46.1208053 178.777447,47.5152456 182.827903,43.9657613 C186.878358,40.2895096 185.123161,36.7400253 182.287842,33.8243774 L148.939092,1.37194907 L148.939092,1.37194907 Z"></path>
                    <path d="M183.502979,1.37194907 C182.017812,-0.0224912136 179.452523,-0.783095003 176.75222,1.37194907 C174.186931,3.52699314 174.456961,4.79466612 175.942128,7.45677938 L205.780484,44.2192959 C207.265651,46.6278745 211.721152,48.0223148 216.041638,44.7263651 C220.362124,41.303648 219.146987,37.5006291 216.041638,34.3314466 L183.502979,1.37194907 L183.502979,1.37194907 Z"></path>
                    <path d="M217.256775,1.24518177 C215.771608,-0.149258512 212.936289,-0.656327705 210.506015,1.24518177 C208.210757,3.14669124 207.670697,4.41436422 209.155864,7.33001208 L238.454158,44.4728305 C239.939325,46.8814091 244.664857,47.8955475 248.445282,44.7263651 C252.360722,41.5571826 252.495737,38.2612328 248.985343,34.5849812 L217.256775,1.24518177 Z"></path>
                    <path d="M251.280601,0.864879874 C249.795434,-0.529560406 247.230145,-0.149258512 245.069902,1.37194907 C243.044675,2.76638935 241.694523,3.78052773 243.314705,6.94971019 L272.072939,45.106667 C273.558106,47.5152456 278.283637,48.0223148 281.794032,45.106667 C285.439442,42.1910191 285.844488,39.0218366 282.874154,35.2188177 L251.280601,0.864879874 L251.280601,0.864879874 Z"></path>
                </g>
            </g>
        </g>
    </g>
</svg>