<?xml version="1.0" encoding="UTF-8"?>
<svg width="1206px" height="183px" viewBox="0 0 1206 183" version="1.1" xmlns="http://www.w3.org/2000/svg" xmlns:xlink="http://www.w3.org/1999/xlink">
    <title>Group 2</title>
    <g id="Page-1" stroke="none" stroke-width="1" fill="none" fill-rule="evenodd">
        <g id="logo-b" transform="translate(0.609054, -34.000000)" fill="#000000" fill-rule="nonzero">
            <g id="Group" transform="translate(0.000000, 34.619520)">
                <g id="Group-2" transform="translate(0.000000, 0.000000)">
                    <path d="M578.613441,89.05504 C578.613441,41.66912 550.816634,0.12704 498.866292,0.12704 L436.390946,0.12704 L436.390946,179.38048 L499.001228,179.38048 C553.380418,179.38048 578.613441,138.4736 578.613441,89.05504 L578.613441,89.05504 Z M538.132655,126.15072 C536.513423,146.096 535.97368,176.33152 498.731356,176.33152 L468.775575,176.33152 L468.775575,3.176 L499.001228,3.176 C533.814704,3.176 536.783295,35.19008 538.132655,51.57824 C540.021758,76.224 540.021758,101.50496 538.132655,126.15072 L538.132655,126.15072 Z" id="Shape"></path>
                    <polygon id="Path" points="702.754518 3.176 702.754518 0.12704 596.559923 0.12704 596.559923 179.38048 702.754518 179.38048 702.754518 176.33152 628.944552 176.33152 628.944552 91.59584 693.174066 91.59584 693.174066 88.54688 628.944552 88.54688 628.944552 3.176"></polygon>
                    <polygon id="Path" points="819.339182 3.176 819.339182 0.12704 713.279523 0.12704 713.279523 179.38048 819.339182 179.38048 819.339182 176.33152 745.664152 176.33152 745.664152 91.59584 809.893666 91.59584 809.893666 88.54688 745.664152 88.54688 745.664152 3.176"></polygon>
                    <path d="M955.354624,179.38048 L902.864538,85.37088 L902.864538,85.1168 C925.668714,83.08416 950.766801,69.2368 950.766801,43.8288 C950.766801,9.78208 919.191788,2.84217094e-14 893.149149,2.84217094e-14 L829.459379,2.84217094e-14 L829.459379,179.25344 L861.844008,179.25344 L861.844008,86.51424 C861.844008,86.51424 862.11388,86.51424 867.376382,86.51424 L918.921916,179.25344 L955.354624,179.38048 L955.354624,179.38048 Z M861.844008,3.176 C861.844008,3.176 862.653623,3.176 892.339533,3.176 C907.047552,3.176 917.977364,11.94176 917.977364,44.20992 C917.977364,74.9536 908.396912,83.8464 893.014213,83.8464 C862.518687,83.8464 861.978944,83.8464 861.978944,83.8464 L861.978944,3.176 L861.844008,3.176 Z" id="Shape"></path>
                    <path d="M142.492367,179.63392 L77.0484295,0.38048 L59.9115634,0.38048 L9.9475983e-14,179.63392 L4.31795052,179.63392 L27.1221267,111.79456 L82.5808036,111.79456 L106.734339,179.63392 L142.492367,179.63392 L142.492367,179.63392 Z M81.636252,108.7456 L28.0666784,108.7456 L53.9743815,29.09152 L54.5141253,29.09152 L81.636252,108.7456 L81.636252,108.7456 Z" id="Shape"></path>
                    <path d="M345.681874,91.30848 C345.681874,43.92256 317.885068,2.38048 265.934725,2.38048 L203.324443,2.38048 L203.324443,181.63392 L265.934725,181.63392 C320.448851,181.63392 345.681874,140.72704 345.681874,91.30848 L345.681874,91.30848 Z M305.201088,128.40416 C303.581856,148.34944 303.042113,178.58496 265.799789,178.58496 L235.844008,178.58496 L235.844008,5.42944 L266.069661,5.42944 C300.883137,5.42944 303.851728,37.44352 305.201088,53.83168 C307.090191,78.47744 307.090191,103.7584 305.201088,128.40416 L305.201088,128.40416 Z" id="Shape"></path>
                    <polygon id="Path" points="1205.39095 0.12704 942.1309 0.12704 942.1309 3.176 999.208809 3.176 999.208809 179.38048 1031.59344 179.38048 1031.59344 3.176 1167.60888 3.176 1167.60888 3.68416 1120.65117 87.6576 1082.19442 87.6576 1082.19442 90.8336 1118.897 90.8336 1069.3755 179.38048 1202.69223 179.38048 1202.69223 176.33152 1108.23706 176.33152 1108.23706 175.56928 1155.19477 90.8336 1204.17652 90.8336 1204.17652 87.6576 1156.94894 87.6576"></polygon>
                    <path d="M173.026671,181.55584 C166.279874,181.55584 160.882436,176.3472 160.882436,168.97888 C160.882436,161.7376 166.279874,156.52896 173.026671,156.52896 C179.638533,156.52896 185.170907,161.7376 185.170907,168.97888 C185.170907,176.3472 179.638533,181.55584 173.026671,181.55584 Z" id="Path"></path>
                    <path d="M369.705913,179.55584 C362.959116,179.55584 357.561677,174.3472 357.561677,166.97888 C357.561677,159.7376 362.959116,154.52896 369.705913,154.52896 C376.317775,154.52896 381.850149,159.7376 381.850149,166.97888 C381.985085,174.3472 376.317775,179.55584 369.705913,179.55584 Z" id="Path"></path>
                </g>
            </g>
        </g>
    </g>
</svg>